<?xml version="1.0" standalone="no"?>
<!DOCTYPE svg PUBLIC "-//W3C//DTD SVG 20010904//EN"
 "http://www.w3.org/TR/2001/REC-SVG-20010904/DTD/svg10.dtd">
<svg version="1.0" xmlns="http://www.w3.org/2000/svg"
 width="512.000000pt" height="512.000000pt" viewBox="0 0 512.000000 512.000000"
 preserveAspectRatio="xMidYMid meet">
<metadata>
Created by potrace 1.16, written by Peter Selinger 2001-2019
</metadata>
<g transform="translate(0.000000,512.000000) scale(0.100000,-0.100000)"
fill="#000000" stroke="none">
<path d="M941 3684 c-92 -46 -136 -128 -129 -244 5 -87 42 -151 112 -195 l49
-30 1587 0 1587 0 49 30 c30 19 60 49 79 79 27 45 30 57 30 136 0 79 -3 91
-30 136 -19 30 -49 60 -79 79 l-49 30 -1577 3 -1576 2 -53 -26z"/>
<path d="M1441 2784 c-92 -46 -136 -128 -129 -244 5 -87 42 -151 112 -195 l49
-30 1087 0 1087 0 49 30 c30 19 60 49 79 79 27 45 30 57 30 136 0 79 -3 91
-30 136 -19 30 -49 60 -79 79 l-49 30 -1076 3 -1077 2 -53 -26z"/>
<path d="M1942 1884 c-93 -46 -137 -128 -130 -244 5 -87 42 -151 112 -195 l49
-30 587 0 587 0 49 30 c30 19 60 49 79 79 27 45 30 57 30 136 0 79 -3 91 -30
136 -19 30 -49 60 -79 79 l-49 30 -576 3 -576 2 -53 -26z"/>
</g>
</svg>
